<svg width="58" height="92" viewBox="0 0 58 92" fill="none" xmlns="http://www.w3.org/2000/svg">
<g clip-path="url(#clip0_210_202)">
<path d="M29.0196 72.938H10.1341C7.9461 72.938 5.8733 72.177 4.26113 70.7312C1.95802 68.7146 0.806461 65.7089 1.26708 62.665C2.07317 57.3383 4.79852 52.4682 8.94412 48.9297C9.71182 48.2829 10.825 48.359 11.4775 49.1199C12.1301 49.8809 12.0149 50.9843 11.2856 51.6311C7.79256 54.5989 5.52784 58.708 4.8369 63.2357C4.56821 65.062 5.22076 66.8883 6.64101 68.0678C7.63902 68.9049 8.90573 69.3615 10.2108 69.3615H29.0963C30.0944 69.3615 30.9004 70.1605 30.9004 71.1117C30.9004 72.0629 30.0944 72.8999 29.0963 72.8999L29.0196 72.938Z" fill="white"/>
<path d="M47.9044 72.9379C46.9064 72.9379 46.1387 72.1389 46.1387 71.1497C46.1387 70.1604 46.9448 69.3995 47.9044 69.3995C49.4782 69.3995 50.9752 68.7146 52.0116 67.5351C53.048 66.3556 53.5086 64.7576 53.2783 63.2357C52.7793 59.9255 51.3974 56.8056 49.3246 54.1803C48.5569 53.2671 47.7508 52.392 46.8296 51.6311C46.0619 50.9843 46.0235 49.8809 46.6377 49.1199C47.2902 48.3589 48.4034 48.3209 49.1711 48.9297C50.2459 49.8428 51.2439 50.8701 52.1268 51.9735C54.6218 55.0554 56.234 58.7841 56.8481 62.665C57.232 65.2142 56.4643 67.8395 54.7753 69.78C53.0864 71.7585 50.5913 72.8618 47.9428 72.8618L47.9044 72.9379Z" fill="white"/>
<path d="M46.6 72.7096C45.602 72.7096 44.7959 71.9106 44.7959 70.9213V64.5673C44.7959 64.0727 44.3736 63.6542 43.8746 63.6542H14.0877C13.5887 63.6542 13.1665 64.0727 13.1665 64.5673V70.3506C13.1665 71.3399 12.3604 72.1008 11.3624 72.1008C10.3644 72.1008 9.59668 71.3018 9.59668 70.3506V64.5673C9.59668 62.0942 11.6311 60.1157 14.0877 60.1157H43.913C46.4081 60.1157 48.4041 62.1323 48.4041 64.5673V70.9213C48.4041 71.9106 47.598 72.7096 46.6384 72.7096H46.6Z" fill="white"/>
<path d="M12.0916 91.9619C9.67338 91.9619 7.33189 90.8965 5.75809 88.918L1.88119 84.0098C0.307398 81.9933 -0.34515 79.406 0.153857 76.8948C0.652865 74.3837 2.22666 72.2149 4.453 70.9213C6.67934 69.6657 9.3663 69.3994 11.823 70.1984C14.2796 71.0355 16.1989 72.8618 17.1969 75.2588L19.5384 81.0421C21.0354 84.6947 19.5384 88.918 16.1221 90.8965C14.8554 91.6194 13.5119 91.9619 12.13 91.9619H12.0916ZM6.21872 74.0032C4.87523 74.7642 3.95399 76.0578 3.64691 77.5797C3.37821 79.1016 3.72368 80.6616 4.68331 81.8411L8.56021 86.7493C9.90369 88.4614 12.3987 88.9561 14.2796 87.8527C16.1989 86.7493 17.0049 84.4284 16.1605 82.3738L13.819 76.5905C13.2432 75.1827 12.0533 74.0793 10.5946 73.5466C9.13599 73.052 7.52381 73.2042 6.18033 73.9652L6.21872 74.0032Z" fill="white"/>
<path d="M45.9087 91.962C44.5652 91.962 43.1833 91.6195 41.9166 90.8966C38.462 88.9181 37.0033 84.6948 38.5003 81.0422L40.8418 75.2589C41.8015 72.8999 43.7591 71.0356 46.2158 70.1985C48.6724 69.3615 51.321 69.6278 53.5857 70.9214C55.8121 72.177 57.3859 74.3838 57.8849 76.8949C58.3839 79.4061 57.7313 81.9934 56.1575 84.0099L52.2806 88.9181C50.7452 90.8966 48.3653 91.962 45.9471 91.962H45.9087ZM49.0947 73.2804C48.5189 73.2804 47.9047 73.3565 47.3673 73.5467C45.9087 74.0414 44.7571 75.1447 44.143 76.5906L41.8015 82.3739C40.9954 84.3904 41.8015 86.7494 43.6823 87.8528C45.6016 88.9562 48.0583 88.4615 49.4017 86.7494L53.2786 81.8412C54.2383 80.6237 54.5837 79.0637 54.315 77.5798C54.008 76.0579 53.0867 74.7643 51.7432 74.0033C50.9371 73.5087 49.9775 73.2804 49.0947 73.2804Z" fill="white"/>
<path d="M29.0188 47.9786C17.9639 47.9786 8.94336 39.0754 8.94336 28.0795C8.94336 17.0836 17.9255 8.18042 29.0188 8.18042C40.1121 8.18042 49.0943 17.0836 49.0943 28.0795C49.0943 39.0754 40.1121 47.9786 29.0188 47.9786ZM29.0188 11.7189C19.9215 11.7189 12.5132 19.0621 12.5132 28.0795C12.5132 37.0969 19.9215 44.4401 29.0188 44.4401C38.1161 44.4401 45.5244 37.0969 45.5244 28.0795C45.5244 19.0621 38.1161 11.7189 29.0188 11.7189Z" fill="white"/>
<path d="M16.352 63.3118C15.3539 63.3118 14.5479 62.5127 14.5479 61.5235V58.4797C14.5479 57.4904 15.3539 56.6914 16.352 56.6914C17.35 56.6914 18.1561 57.4904 18.1561 58.4797V61.5235C18.1561 62.5127 17.35 63.3118 16.352 63.3118Z" fill="white"/>
<path d="M41.5707 63.3118C40.5727 63.3118 39.7666 62.5127 39.7666 61.5235V58.4797C39.7666 57.4904 40.5727 56.6914 41.5707 56.6914C42.5687 56.6914 43.3748 57.4904 43.3748 58.4797V61.5235C43.3748 62.5127 42.5687 63.3118 41.5707 63.3118Z" fill="white"/>
<path d="M19.5385 29.9438C19.0778 29.9438 18.6556 29.7916 18.3101 29.4492C17.5808 28.7644 17.5424 27.661 18.2334 26.938C19.0778 26.0249 20.2678 25.6064 21.5345 25.5303C22.7244 25.5303 23.8376 26.0249 24.6437 26.938C25.2962 27.661 25.2195 28.7644 24.4901 29.4492C23.7608 30.096 22.6477 30.0199 21.9567 29.297C21.8416 29.1448 21.7264 29.1068 21.4577 29.0687C21.2274 29.0687 20.9971 29.1829 20.8436 29.3351C20.4981 29.7156 20.0375 29.9058 19.5385 29.9058V29.9438Z" fill="white"/>
<path d="M34.6615 29.9438C34.2009 29.9438 33.7787 29.7916 33.4332 29.4492C32.7039 28.7644 32.6655 27.661 33.3564 26.938C34.2009 26.0629 35.3908 25.5303 36.5808 25.5303H36.6192C37.8091 25.5303 38.9223 26.0249 39.7284 26.938C40.3809 27.661 40.3041 28.7644 39.5748 29.4492C38.8455 30.096 37.7323 30.0199 37.0414 29.297C36.9262 29.1448 36.7727 29.0687 36.5424 29.0687C36.3121 29.0687 36.0818 29.1829 35.9282 29.3351C35.5828 29.7156 35.1221 29.9058 34.6231 29.9058L34.6615 29.9438Z" fill="white"/>
<path d="M29.0189 39.1893C26.8693 39.1893 24.8733 38.2761 23.453 36.6401C22.8005 35.8791 22.9156 34.7757 23.6449 34.1289C24.4127 33.4821 25.5258 33.5963 26.1784 34.3192C27.5986 35.9552 30.4391 35.9552 31.8594 34.3192C32.5119 33.5582 33.6251 33.4821 34.3928 34.1289C35.1605 34.7757 35.2373 35.8791 34.5847 36.6401C33.2029 38.2761 31.1684 39.1893 29.0189 39.1893Z" fill="white"/>
<path d="M29.0194 11.7188C28.0214 11.7188 27.2153 10.9198 27.2153 9.96857C27.2153 9.01737 28.0214 8.18032 29.0194 8.18032C30.2861 8.18032 31.3609 7.15302 31.3609 5.85939C31.3609 4.56576 30.3245 3.53846 29.0194 3.53846C28.4052 3.53846 27.7911 3.8048 27.3688 4.22333C26.6779 4.90819 25.5647 4.90819 24.8354 4.22333C24.1061 3.53846 24.1445 2.43507 24.8354 1.71216C25.9486 0.608768 27.4456 0 29.0194 0C32.2822 0 34.9307 2.62531 34.9307 5.85939C34.9307 9.09347 32.2822 11.7188 29.0194 11.7188Z" fill="white"/>
<path d="M29.0188 89.4889C25.0267 89.4889 21.1882 88.6899 17.58 87.0538C16.6971 86.6353 16.2749 85.608 16.6971 84.7329C17.1194 83.8578 18.1558 83.4393 19.0386 83.8578C25.2954 86.6353 32.6654 86.6353 38.9605 83.8578C39.8434 83.4393 40.9182 83.8578 41.302 84.7329C41.7243 85.608 41.302 86.6733 40.4192 87.0538C36.811 88.6518 32.9725 89.4889 28.9804 89.4889H29.0188Z" fill="white"/>
</g>
<defs>
<clipPath id="clip0_210_202">
<rect width="58" height="92" fill="white"/>
</clipPath>
</defs>
</svg>
