<svg width="38" height="35" viewBox="0 0 38 35" fill="none" xmlns="http://www.w3.org/2000/svg">
<path d="M24.2794 17.7164C24.2794 18.4991 24.924 19.1437 25.7067 19.1437C26.4894 19.1437 27.134 18.4991 27.134 17.7164C27.134 16.9336 26.4894 16.2891 25.7067 16.2891C24.924 16.2891 24.2794 16.9336 24.2794 17.7164Z" fill="currentColor"/>
<path d="M30.0193 17.7164C30.0193 18.4991 30.6639 19.1437 31.4466 19.1437C32.2293 19.1437 32.8739 18.4991 32.8739 17.7164C32.8739 16.9336 32.2293 16.2891 31.4466 16.2891C30.6639 16.2891 30.0193 16.9336 30.0193 17.7164Z" fill="currentColor"/>
<path d="M34.9765 34.8134H2.14863C0.966893 34.8134 0 33.8465 0 32.6648V11.2707C0 10.3959 0.521815 9.61315 1.35057 9.27551C1.7189 9.13738 2.11794 9.30621 2.27142 9.67454C2.42489 10.0429 2.25605 10.4573 1.87237 10.5954C1.61147 10.7028 1.42731 10.9637 1.42731 11.2553V32.6494C1.42731 33.0485 1.74961 33.3708 2.14863 33.3708H34.9765C35.3755 33.3708 35.6978 33.0485 35.6978 32.6494V11.2553C35.6978 10.8563 35.3755 10.534 34.9765 10.534H17.8489C17.4652 10.534 17.1429 10.2117 17.1429 9.82801C17.1429 9.44433 17.4652 9.10669 17.8489 9.10669H34.9765C36.1582 9.10669 37.1251 10.0736 37.1251 11.2553V32.6494C37.1251 33.8312 36.1582 34.7981 34.9765 34.7981V34.8134Z" fill="currentColor"/>
<path d="M12.8457 30.5316C8.11876 30.5316 4.28194 26.6948 4.28194 21.9678C4.28194 17.2409 8.11876 13.4041 12.8457 13.4041C17.5727 13.4041 21.4095 17.2409 21.4095 21.9678C21.4095 26.6948 17.5727 30.5316 12.8457 30.5316ZM12.8457 14.8314C8.90147 14.8314 5.70922 18.0389 5.70922 21.9678C5.70922 25.8968 8.91682 29.1043 12.8457 29.1043C16.7746 29.1043 19.9822 25.8968 19.9822 21.9678C19.9822 18.0389 16.7746 14.8314 12.8457 14.8314Z" fill="currentColor"/>
<path d="M32.0298 23.4407H24.9701C24.571 23.4407 24.2487 23.1184 24.2487 22.7194C24.2487 22.3204 24.571 22.0134 24.9701 22.0134H32.0298C32.4289 22.0134 32.7511 22.3357 32.7511 22.7194C32.7511 23.1031 32.4289 23.4407 32.0298 23.4407Z" fill="currentColor"/>
<path d="M32.0298 27.6771H24.9701C24.571 27.6771 24.2487 27.3548 24.2487 26.9557C24.2487 26.5567 24.571 26.2498 24.9701 26.2498H32.0298C32.4289 26.2498 32.7511 26.572 32.7511 26.9557C32.7511 27.3394 32.4289 27.6771 32.0298 27.6771Z" fill="currentColor"/>
<path d="M1.61146 10.6722C1.30452 10.6722 0.997574 10.4574 0.920838 10.1504C0.828754 9.76674 1.04362 9.38306 1.4273 9.27563L36.2196 0.0212102C36.5879 -0.0708736 36.987 0.143991 37.0944 0.527674C37.2018 0.911356 36.9716 1.29504 36.588 1.40247L1.79564 10.6569C1.79564 10.6569 1.67285 10.6722 1.61146 10.6722Z" fill="currentColor"/>
</svg>
