<svg width="38" height="49" viewBox="0 0 38 49" fill="none" xmlns="http://www.w3.org/2000/svg">
<path d="M11.2759 13.1757C10.2251 13.1757 9.39659 12.3471 9.39659 11.2963C9.39659 10.2455 10.2453 9.41699 11.2759 9.41699V13.1757Z" fill="currentColor"/>
<path d="M26.3104 13.1757C27.3612 13.1757 28.1898 12.3471 28.1898 11.2963C28.1898 10.2455 27.341 9.41699 26.3104 9.41699V13.1757Z" fill="currentColor"/>
<path d="M18.7932 20.6927C13.8221 20.6927 10.3261 12.7713 10.3261 8.46703C10.3261 3.79905 14.1252 0 18.7932 0C23.4611 0 27.2602 3.79905 27.2602 8.46703C27.2602 12.7713 23.7845 20.6927 18.7932 20.6927ZM18.7932 1.89953C15.176 1.89953 12.2257 4.84987 12.2257 8.48726C12.2257 12.3873 15.4185 18.8336 18.7932 18.8336C22.1678 18.8336 25.3809 12.3873 25.3809 8.48726C25.3809 4.84987 22.4305 1.89953 18.7932 1.89953Z" fill="currentColor"/>
<path d="M24.128 9.73983C21.9052 9.73983 19.7429 8.8709 18.1263 7.27449C17.7626 6.91075 17.7626 6.32472 18.1263 5.94077C18.4901 5.57703 19.0761 5.57703 19.46 5.94077C21.1171 7.5978 23.5622 8.24444 25.8457 7.63821C26.3307 7.49676 26.856 7.79991 26.9975 8.3051C27.1187 8.81029 26.8358 9.31544 26.3306 9.45689C25.6032 9.65897 24.8555 9.73983 24.1078 9.73983H24.128Z" fill="currentColor"/>
<path d="M18.7932 7.53726H15.9641C15.4387 7.53726 15.0143 7.1129 15.0143 6.5875C15.0143 6.0621 15.4387 5.65796 15.9641 5.65796H18.7932C19.3186 5.65796 19.7429 6.0823 19.7429 6.5875C19.7429 7.09269 19.3186 7.53726 18.7932 7.53726Z" fill="currentColor"/>
<path d="M34.7977 48.9024H2.8291C1.2731 48.9024 0 47.6293 0 46.0733V32.8979C0 28.9776 2.62701 25.4817 6.38564 24.3904L11.094 23.0365C11.579 22.895 12.1044 23.178 12.2459 23.6832C12.3873 24.1883 12.1044 24.7138 11.6194 24.8552L6.93126 26.2091C3.96073 27.0578 1.87933 29.8263 1.87933 32.9181V46.0935C1.87933 46.6189 2.3037 47.0231 2.8291 47.0231H34.7977C35.3029 47.0231 35.7272 46.5987 35.7272 46.0935V32.9787C35.7272 29.9273 33.7065 27.1791 30.7561 26.3102L25.8457 24.835C25.3405 24.6936 25.0576 24.1681 25.2192 23.6629C25.3809 23.1577 25.8861 22.8748 26.3913 23.0365L31.3017 24.5117C35.02 25.6231 37.6268 29.0989 37.6268 32.9989V46.1137C37.6268 47.6697 36.3537 48.9428 34.7977 48.9428V48.9024Z" fill="currentColor"/>
<path fill-rule="evenodd" clip-rule="evenodd" d="M10.9526 23.3797C11.2961 22.9957 11.9023 22.9755 12.2863 23.3393C13.236 24.2284 15.9035 26.0066 18.7932 26.0066C21.6829 26.0066 24.3705 24.2284 25.3202 23.3393C25.7042 22.9755 26.2902 23.0159 26.654 23.3797C26.9975 23.7636 26.9975 24.3496 26.6136 24.7134C25.4617 25.7642 22.3699 27.886 18.7932 27.886C15.2164 27.886 12.1246 25.7642 10.993 24.7134C10.609 24.3496 10.5888 23.7636 10.9324 23.3797H10.9526Z" fill="currentColor"/>
<path d="M8.36598 48.5185C7.94162 48.5185 7.55768 48.2356 7.45664 47.8112L5.65815 40.6577C5.53691 40.1525 5.84002 39.6473 6.34521 39.526C6.83019 39.3846 7.35562 39.7079 7.47687 40.2131L9.27535 47.3666C9.3966 47.8718 9.09346 48.377 8.58827 48.4983C8.52764 48.4983 8.44681 48.5185 8.36598 48.5185Z" fill="currentColor"/>
<path d="M29.2001 48.6399C29.2001 48.6399 29.0587 48.6399 28.9778 48.6196C28.4726 48.4984 28.1695 47.973 28.311 47.488L30.1095 40.2132C30.2307 39.708 30.7561 39.4049 31.2613 39.5262C31.7665 39.6474 32.0696 40.1728 31.9484 40.6578L30.1297 47.9326C30.0286 48.357 29.6447 48.6399 29.2203 48.6399H29.2001Z" fill="currentColor"/>
</svg>
